# xmcd
#
# Track frame offsets:
# 150
# 5929
# 11054
# 23600
# 32490
# 46376
# 57190
# 66396
# 78017
# 95626
# 113954
# 131465
# 145140
# 162341
# 177001
# 192984
# 207154
# 220072
# 234716
# 254350
# 269200
# 293650
# 304190
# 316638
# 333878
#
# Disc length: 4744 seconds
#
#
# Revision: 0
# Processed by: cddbd v1.5.2PL0 Copyright (c) Steve Scherf et al.
# Submitted via: FreeRIP 2.945 
#
DISCID=64128619
DTITLE=Hosted By Ill Bill - HipHop Disciples Vol 18
DYEAR=1900
DGENRE=Hip-Hop
TTITLE0=Intro(730)
TTITLE1=HHGfreestyle(Ill Bill)
TTITLE2=Gansta Boogie(MOP)
TTITLE3=HHGfreestlye(PoisonPen)
TTITLE4=Lets Go(Pharoah Monche)
TTITLE5=Get Low(Inspectah Deck)
TTITLE6=Off Track(JoJoPellegrino)
TTITLE7=HHGfreestyle2(Ill Bill)
TTITLE8=Dont Do That(Saigon)
TTITLE9=Where Yall At(Nas)
TTITLE10=Street Corner(Masta Killa Gza)
TTITLE11=the format(AZ)
TTITLE12=Watch How It Goes Down(Termanology)
TTITLE13=Ding Dong(Royce59)
TTITLE14=Never BE(JHood)
TTITLE15=NY Rider Music(Agallah)
TTITLE16=HHGfreestyle(Born Unique)
TTITLE17=Fck Tony Montana(La Coka Nostra)
TTITLE18=Street Villians(Ill Bill Big Noyd)
TTITLE19=Anatomy of a School Shooting(Ill Bill)
TTITLE20=Through Milleniums(Killah Priest)
TTITLE21=Major Game(Guru)
TTITLE22=HHGfreestyle(Poison Pen Akir)
TTITLE23=King Of The West(Ras Kass)
TTITLE24=Auto Bio(Ma Barker)
EXTD=
EXTT0=
EXTT1=
EXTT2=
EXTT3=
EXTT4=
EXTT5=
EXTT6=
EXTT7=
EXTT8=
EXTT9=
EXTT10=
EXTT11=
EXTT12=
EXTT13=
EXTT14=
EXTT15=
EXTT16=
EXTT17=
EXTT18=
EXTT19=
EXTT20=
EXTT21=
EXTT22=
EXTT23=
EXTT24=
PLAYORDER=
